<svg xmlns="http://www.w3.org/2000/svg" viewBox="0 0 400 225" width="400" height="225">
  <defs>
    <linearGradient id="bg" x1="0%" y1="0%" x2="100%" y2="100%">
      <stop offset="0%" style="stop-color:#60a5fa"/>
      <stop offset="100%" style="stop-color:#2563eb"/>
    </linearGradient>
  </defs>
  <rect width="400" height="225" fill="url(#bg)"/>
  <!-- Game grid (10x8 partial) -->
  <rect x="220" y="15" width="165" height="185" rx="6" fill="rgba(0,0,0,0.25)"/>
  <!-- Grid lines -->
  <g stroke="rgba(255,255,255,0.15)" stroke-width="1">
    <line x1="238" y1="15" x2="238" y2="200"/>
    <line x1="256" y1="15" x2="256" y2="200"/>
    <line x1="274" y1="15" x2="274" y2="200"/>
    <line x1="292" y1="15" x2="292" y2="200"/>
    <line x1="310" y1="15" x2="310" y2="200"/>
    <line x1="328" y1="15" x2="328" y2="200"/>
    <line x1="346" y1="15" x2="346" y2="200"/>
    <line x1="364" y1="15" x2="364" y2="200"/>
    <line x1="220" y1="33" x2="385" y2="33"/>
    <line x1="220" y1="51" x2="385" y2="51"/>
    <line x1="220" y1="69" x2="385" y2="69"/>
    <line x1="220" y1="87" x2="385" y2="87"/>
    <line x1="220" y1="105" x2="385" y2="105"/>
    <line x1="220" y1="123" x2="385" y2="123"/>
    <line x1="220" y1="141" x2="385" y2="141"/>
    <line x1="220" y1="159" x2="385" y2="159"/>
    <line x1="220" y1="177" x2="385" y2="177"/>
  </g>
  <!-- Placed blocks in grid -->
  <rect x="220" y="159" width="18" height="18" rx="2" fill="#60a5fa" stroke="rgba(255,255,255,0.3)" stroke-width="1"/>
  <rect x="238" y="159" width="18" height="18" rx="2" fill="#60a5fa" stroke="rgba(255,255,255,0.3)" stroke-width="1"/>
  <rect x="256" y="159" width="18" height="18" rx="2" fill="#60a5fa" stroke="rgba(255,255,255,0.3)" stroke-width="1"/>
  <rect x="274" y="159" width="18" height="18" rx="2" fill="#f59e0b" stroke="rgba(255,255,255,0.3)" stroke-width="1"/>
  <rect x="292" y="159" width="18" height="18" rx="2" fill="#f59e0b" stroke="rgba(255,255,255,0.3)" stroke-width="1"/>
  <rect x="292" y="141" width="18" height="18" rx="2" fill="#f59e0b" stroke="rgba(255,255,255,0.3)" stroke-width="1"/>
  <rect x="310" y="159" width="18" height="18" rx="2" fill="#22c55e" stroke="rgba(255,255,255,0.3)" stroke-width="1"/>
  <rect x="328" y="159" width="18" height="18" rx="2" fill="#22c55e" stroke="rgba(255,255,255,0.3)" stroke-width="1"/>
  <rect x="328" y="141" width="18" height="18" rx="2" fill="#22c55e" stroke="rgba(255,255,255,0.3)" stroke-width="1"/>
  <rect x="346" y="159" width="18" height="18" rx="2" fill="#ef4444" stroke="rgba(255,255,255,0.3)" stroke-width="1"/>
  <rect x="364" y="159" width="18" height="18" rx="2" fill="#ef4444" stroke="rgba(255,255,255,0.3)" stroke-width="1"/>
  <rect x="364" y="141" width="18" height="18" rx="2" fill="#ef4444" stroke="rgba(255,255,255,0.3)" stroke-width="1"/>
  <rect x="364" y="123" width="18" height="18" rx="2" fill="#ef4444" stroke="rgba(255,255,255,0.3)" stroke-width="1"/>
  <!-- Tetromino pieces on left (to be placed) -->
  <!-- L-piece -->
  <rect x="30" y="40" width="30" height="30" rx="4" fill="#60a5fa" stroke="rgba(255,255,255,0.5)" stroke-width="2"/>
  <rect x="60" y="40" width="30" height="30" rx="4" fill="#60a5fa" stroke="rgba(255,255,255,0.5)" stroke-width="2"/>
  <rect x="90" y="40" width="30" height="30" rx="4" fill="#60a5fa" stroke="rgba(255,255,255,0.5)" stroke-width="2"/>
  <rect x="90" y="70" width="30" height="30" rx="4" fill="#60a5fa" stroke="rgba(255,255,255,0.5)" stroke-width="2"/>
  <!-- S-piece -->
  <rect x="60" y="120" width="30" height="30" rx="4" fill="#22c55e" stroke="rgba(255,255,255,0.5)" stroke-width="2"/>
  <rect x="90" y="120" width="30" height="30" rx="4" fill="#22c55e" stroke="rgba(255,255,255,0.5)" stroke-width="2"/>
  <rect x="30" y="150" width="30" height="30" rx="4" fill="#22c55e" stroke="rgba(255,255,255,0.5)" stroke-width="2"/>
  <rect x="60" y="150" width="30" height="30" rx="4" fill="#22c55e" stroke="rgba(255,255,255,0.5)" stroke-width="2"/>
  <text x="200" y="215" text-anchor="middle" font-family="sans-serif" font-size="18" font-weight="bold" fill="white" opacity="0.9">블록 퍼즐</text>
</svg>
