<svg xmlns="http://www.w3.org/2000/svg" viewBox="0 0 400 225" width="400" height="225">
  <defs>
    <linearGradient id="bg" x1="0%" y1="0%" x2="100%" y2="100%">
      <stop offset="0%" style="stop-color:#fb923c"/>
      <stop offset="100%" style="stop-color:#ea580c"/>
    </linearGradient>
  </defs>
  <rect width="400" height="225" fill="url(#bg)"/>
  <!-- Grid background -->
  <rect x="50" y="15" width="300" height="180" rx="10" fill="rgba(0,0,0,0.25)"/>
  <!-- 4x4 tile grid -->
  <!-- Row 1 -->
  <rect x="60" y="25" width="64" height="40" rx="5" fill="#edc22e"/>
  <text x="92" y="51" text-anchor="middle" font-family="sans-serif" font-size="14" font-weight="bold" fill="#776e65">2048</text>
  <rect x="132" y="25" width="64" height="40" rx="5" fill="#f2b179"/>
  <text x="164" y="51" text-anchor="middle" font-family="sans-serif" font-size="14" font-weight="bold" fill="#f9f6f2">256</text>
  <rect x="204" y="25" width="64" height="40" rx="5" fill="#f59563"/>
  <text x="236" y="51" text-anchor="middle" font-family="sans-serif" font-size="14" font-weight="bold" fill="#f9f6f2">128</text>
  <rect x="276" y="25" width="64" height="40" rx="5" fill="#f67c5f"/>
  <text x="308" y="51" text-anchor="middle" font-family="sans-serif" font-size="14" font-weight="bold" fill="#f9f6f2">64</text>
  <!-- Row 2 -->
  <rect x="60" y="73" width="64" height="40" rx="5" fill="#f67c5f"/>
  <text x="92" y="99" text-anchor="middle" font-family="sans-serif" font-size="14" font-weight="bold" fill="#f9f6f2">32</text>
  <rect x="132" y="73" width="64" height="40" rx="5" fill="#f59563"/>
  <text x="164" y="99" text-anchor="middle" font-family="sans-serif" font-size="14" font-weight="bold" fill="#f9f6f2">16</text>
  <rect x="204" y="73" width="64" height="40" rx="5" fill="#ede0c8"/>
  <text x="236" y="99" text-anchor="middle" font-family="sans-serif" font-size="14" font-weight="bold" fill="#776e65">8</text>
  <rect x="276" y="73" width="64" height="40" rx="5" fill="#eee4da"/>
  <text x="308" y="99" text-anchor="middle" font-family="sans-serif" font-size="14" font-weight="bold" fill="#776e65">4</text>
  <!-- Row 3 -->
  <rect x="60" y="121" width="64" height="40" rx="5" fill="#eee4da"/>
  <text x="92" y="147" text-anchor="middle" font-family="sans-serif" font-size="14" font-weight="bold" fill="#776e65">4</text>
  <rect x="132" y="121" width="64" height="40" rx="5" fill="#ede0c8"/>
  <text x="164" y="147" text-anchor="middle" font-family="sans-serif" font-size="14" font-weight="bold" fill="#776e65">2</text>
  <rect x="204" y="121" width="64" height="40" rx="5" fill="rgba(238,228,218,0.35)"/>
  <rect x="276" y="121" width="64" height="40" rx="5" fill="#eee4da"/>
  <text x="308" y="147" text-anchor="middle" font-family="sans-serif" font-size="14" font-weight="bold" fill="#776e65">2</text>
  <!-- Row 4 -->
  <rect x="60" y="169" width="64" height="17" rx="5" fill="rgba(238,228,218,0.35)"/>
  <rect x="132" y="169" width="64" height="17" rx="5" fill="#eee4da"/>
  <text x="164" y="181" text-anchor="middle" font-family="sans-serif" font-size="10" font-weight="bold" fill="#776e65">2</text>
  <rect x="204" y="169" width="64" height="17" rx="5" fill="rgba(238,228,218,0.35)"/>
  <rect x="276" y="169" width="64" height="17" rx="5" fill="rgba(238,228,218,0.35)"/>
  <text x="200" y="215" text-anchor="middle" font-family="sans-serif" font-size="18" font-weight="bold" fill="white" opacity="0.9">2048</text>
</svg>
