<svg xmlns="http://www.w3.org/2000/svg" viewBox="0 0 400 225" width="400" height="225">
  <defs>
    <linearGradient id="bg" x1="0%" y1="0%" x2="100%" y2="100%">
      <stop offset="0%" style="stop-color:#fbbf24"/>
      <stop offset="100%" style="stop-color:#d97706"/>
    </linearGradient>
  </defs>
  <rect width="400" height="225" fill="url(#bg)"/>
  <!-- Crossword grid 7x7 -->
  <rect x="55" y="15" width="290" height="185" rx="6" fill="rgba(0,0,0,0.2)"/>
  <!-- Black/white cells -->
  <!-- Row 1: W W W B W W W -->
  <rect x="60" y="20" width="38" height="38" rx="2" fill="white"/>
  <rect x="100" y="20" width="38" height="38" rx="2" fill="white"/>
  <rect x="140" y="20" width="38" height="38" rx="2" fill="white"/>
  <rect x="180" y="20" width="38" height="38" rx="2" fill="#1e293b"/>
  <rect x="220" y="20" width="38" height="38" rx="2" fill="white"/>
  <rect x="260" y="20" width="38" height="38" rx="2" fill="white"/>
  <rect x="300" y="20" width="38" height="38" rx="2" fill="white"/>
  <!-- Row 2: B W B W B W B -->
  <rect x="60" y="60" width="38" height="38" rx="2" fill="#1e293b"/>
  <rect x="100" y="60" width="38" height="38" rx="2" fill="white"/>
  <rect x="140" y="60" width="38" height="38" rx="2" fill="#1e293b"/>
  <rect x="180" y="60" width="38" height="38" rx="2" fill="white"/>
  <rect x="220" y="60" width="38" height="38" rx="2" fill="#1e293b"/>
  <rect x="260" y="60" width="38" height="38" rx="2" fill="white"/>
  <rect x="300" y="60" width="38" height="38" rx="2" fill="#1e293b"/>
  <!-- Row 3: W W W W W W W -->
  <rect x="60" y="100" width="38" height="38" rx="2" fill="white"/>
  <rect x="100" y="100" width="38" height="38" rx="2" fill="white"/>
  <rect x="140" y="100" width="38" height="38" rx="2" fill="white"/>
  <rect x="180" y="100" width="38" height="38" rx="2" fill="white"/>
  <rect x="220" y="100" width="38" height="38" rx="2" fill="white"/>
  <rect x="260" y="100" width="38" height="38" rx="2" fill="white"/>
  <rect x="300" y="100" width="38" height="38" rx="2" fill="white"/>
  <!-- Row 4: W B W B W B W -->
  <rect x="60" y="140" width="38" height="38" rx="2" fill="white"/>
  <rect x="100" y="140" width="38" height="38" rx="2" fill="#1e293b"/>
  <rect x="140" y="140" width="38" height="38" rx="2" fill="white"/>
  <rect x="180" y="140" width="38" height="38" rx="2" fill="#1e293b"/>
  <rect x="220" y="140" width="38" height="38" rx="2" fill="white"/>
  <rect x="260" y="140" width="38" height="38" rx="2" fill="#1e293b"/>
  <rect x="300" y="140" width="38" height="38" rx="2" fill="white"/>
  <!-- Row 5: W W B W W W W -->
  <rect x="60" y="178" width="38" height="18" rx="2" fill="white"/>
  <rect x="100" y="178" width="38" height="18" rx="2" fill="white"/>
  <rect x="140" y="178" width="38" height="18" rx="2" fill="#1e293b"/>
  <rect x="180" y="178" width="38" height="18" rx="2" fill="white"/>
  <rect x="220" y="178" width="38" height="18" rx="2" fill="white"/>
  <rect x="260" y="178" width="38" height="18" rx="2" fill="white"/>
  <rect x="300" y="178" width="38" height="18" rx="2" fill="white"/>
  <!-- Korean letters in cells -->
  <g font-family="sans-serif" font-size="18" font-weight="bold" fill="#1e3a8a" text-anchor="middle">
    <text x="79" y="45">가</text>
    <text x="119" y="45">나</text>
    <text x="159" y="45">다</text>
    <text x="239" y="45">라</text>
    <text x="279" y="45">마</text>
    <text x="319" y="45">바</text>
    <text x="119" y="85">사</text>
    <text x="199" y="85">아</text>
    <text x="279" y="85">자</text>
    <text x="79" y="125">차</text>
    <text x="119" y="125">카</text>
    <text x="159" y="125">타</text>
    <text x="199" y="125">파</text>
    <text x="239" y="125">하</text>
    <text x="279" y="125">나</text>
    <text x="319" y="125">다</text>
    <text x="79" y="165">라</text>
    <text x="159" y="165">마</text>
    <text x="239" y="165">바</text>
    <text x="319" y="165">사</text>
  </g>
  <!-- Small clue numbers -->
  <g font-family="sans-serif" font-size="7" fill="#b91c1c" text-anchor="start">
    <text x="62" y="28">1</text>
    <text x="102" y="28">2</text>
    <text x="222" y="28">3</text>
    <text x="102" y="68">4</text>
  </g>
  <text x="200" y="215" text-anchor="middle" font-family="sans-serif" font-size="18" font-weight="bold" fill="white" opacity="0.9">한국어 크로스워드</text>
</svg>
