<svg xmlns="http://www.w3.org/2000/svg" viewBox="0 0 400 225" width="400" height="225">
  <defs>
    <linearGradient id="bg" x1="0%" y1="0%" x2="100%" y2="100%">
      <stop offset="0%" style="stop-color:#60a5fa"/>
      <stop offset="100%" style="stop-color:#2563eb"/>
    </linearGradient>
    <linearGradient id="night-sky" x1="0%" y1="0%" x2="0%" y2="100%">
      <stop offset="0%" style="stop-color:#0f172a"/>
      <stop offset="100%" style="stop-color:#1e3a5f"/>
    </linearGradient>
  </defs>
  <rect width="400" height="225" fill="url(#bg)"/>
  <!-- Night sky -->
  <rect x="0" y="0" width="400" height="175" fill="url(#night-sky)"/>
  <!-- Stars -->
  <g fill="white" opacity="0.7">
    <circle cx="30" cy="20" r="1.5"/><circle cx="75" cy="35" r="1"/><circle cx="120" cy="15" r="1.5"/>
    <circle cx="180" cy="28" r="1"/><circle cx="240" cy="12" r="1.5"/><circle cx="290" cy="40" r="1"/>
    <circle cx="330" cy="18" r="1.5"/><circle cx="370" cy="30" r="1"/><circle cx="55" cy="55" r="1"/>
    <circle cx="160" cy="50" r="1"/><circle cx="315" cy="55" r="1.5"/><circle cx="210" cy="45" r="1"/>
  </g>
  <!-- Moon -->
  <circle cx="350" cy="35" r="18" fill="#fde68a"/>
  <circle cx="360" cy="28" r="14" fill="#1e3a5f"/>
  <!-- City skyline - buildings silhouette -->
  <!-- Left buildings -->
  <rect x="0" y="120" width="35" height="80" fill="#1e293b"/>
  <rect x="8" y="108" width="20" height="15" fill="#1e293b"/>
  <!-- Windows lit up -->
  <g fill="#fbbf24" opacity="0.8">
    <rect x="5" y="125" width="8" height="6" rx="1"/>
    <rect x="18" y="125" width="8" height="6" rx="1"/>
    <rect x="5" y="137" width="8" height="6" rx="1"/>
    <rect x="18" y="145" width="8" height="6" rx="1"/>
    <rect x="5" y="158" width="8" height="6" rx="1"/>
    <rect x="18" y="158" width="8" height="6" rx="1"/>
    <rect x="12" y="112" width="8" height="6" rx="1"/>
  </g>
  <rect x="35" y="90" width="45" height="110" fill="#1e293b"/>
  <rect x="42" y="78" width="12" height="14" fill="#1e293b"/>
  <g fill="#38bdf8" opacity="0.7">
    <rect x="40" y="97" width="9" height="7" rx="1"/>
    <rect x="54" y="97" width="9" height="7" rx="1"/>
    <rect x="68" y="97" width="9" height="7" rx="1"/>
    <rect x="40" y="111" width="9" height="7" rx="1"/>
    <rect x="68" y="111" width="9" height="7" rx="1"/>
    <rect x="40" y="125" width="9" height="7" rx="1"/>
    <rect x="54" y="125" width="9" height="7" rx="1"/>
    <rect x="68" y="125" width="9" height="7" rx="1"/>
  </g>
  <!-- Tall center building -->
  <rect x="80" y="60" width="55" height="140" fill="#0f172a"/>
  <!-- Antenna -->
  <line x1="107" y1="60" x2="107" y2="42" stroke="#475569" stroke-width="3"/>
  <circle cx="107" cy="40" r="3" fill="#ef4444" opacity="0.8"/>
  <g fill="#fbbf24" opacity="0.8">
    <rect x="86" y="67" width="10" height="8" rx="1"/>
    <rect x="100" y="67" width="10" height="8" rx="1"/>
    <rect x="114" y="67" width="10" height="8" rx="1"/>
    <rect x="86" y="82" width="10" height="8" rx="1"/>
    <rect x="114" y="82" width="10" height="8" rx="1"/>
    <rect x="100" y="97" width="10" height="8" rx="1"/>
    <rect x="86" y="112" width="10" height="8" rx="1"/>
    <rect x="114" y="112" width="10" height="8" rx="1"/>
  </g>
  <!-- Right side buildings -->
  <rect x="135" y="100" width="40" height="100" fill="#1e293b"/>
  <rect x="175" y="75" width="50" height="125" fill="#0f172a"/>
  <rect x="225" y="95" width="38" height="105" fill="#1e293b"/>
  <rect x="263" y="70" width="55" height="130" fill="#0f172a"/>
  <rect x="318" y="88" width="42" height="112" fill="#1e293b"/>
  <rect x="360" y="105" width="40" height="95" fill="#1e293b"/>
  <!-- Windows on right buildings -->
  <g fill="#38bdf8" opacity="0.6">
    <rect x="140" y="108" width="8" height="6" rx="1"/>
    <rect x="153" y="108" width="8" height="6" rx="1"/>
    <rect x="140" y="122" width="8" height="6" rx="1"/>
    <rect x="180" y="82" width="9" height="7" rx="1"/>
    <rect x="194" y="82" width="9" height="7" rx="1"/>
    <rect x="207" y="82" width="9" height="7" rx="1"/>
    <rect x="180" y="97" width="9" height="7" rx="1"/>
    <rect x="207" y="97" width="9" height="7" rx="1"/>
    <rect x="268" y="78" width="10" height="8" rx="1"/>
    <rect x="282" y="78" width="10" height="8" rx="1"/>
    <rect x="296" y="78" width="10" height="8" rx="1"/>
    <rect x="268" y="95" width="10" height="8" rx="1"/>
    <rect x="296" y="95" width="10" height="8" rx="1"/>
    <rect x="323" y="96" width="9" height="7" rx="1"/>
    <rect x="336" y="96" width="9" height="7" rx="1"/>
    <rect x="350" y="96" width="9" height="7" rx="1"/>
  </g>
  <!-- Ground/street -->
  <rect x="0" y="175" width="400" height="30" fill="#1e293b"/>
  <line x1="0" y1="188" x2="400" y2="188" stroke="#fbbf24" stroke-width="1.5" stroke-dasharray="20,15" opacity="0.6"/>
  <!-- Population/money counter -->
  <rect x="10" y="8" width="160" height="25" rx="6" fill="rgba(0,0,0,0.4)"/>
  <text x="20" y="26" font-family="sans-serif" font-size="13" font-weight="bold" fill="#fbbf24">💰 1,482,000</text>
  <rect x="230" y="8" width="160" height="25" rx="6" fill="rgba(0,0,0,0.4)"/>
  <text x="240" y="26" font-family="sans-serif" font-size="13" font-weight="bold" fill="#86efac">👥 42,800명</text>
  <text x="200" y="215" text-anchor="middle" font-family="sans-serif" font-size="18" font-weight="bold" fill="white" opacity="0.9">도시 클리커</text>
</svg>
