<svg xmlns="http://www.w3.org/2000/svg" viewBox="0 0 400 225" width="400" height="225">
  <defs>
    <linearGradient id="bg" x1="0%" y1="0%" x2="100%" y2="100%">
      <stop offset="0%" style="stop-color:#ef4444"/>
      <stop offset="100%" style="stop-color:#b91c1c"/>
    </linearGradient>
  </defs>
  <rect width="400" height="225" fill="url(#bg)"/>
  <!-- Falling Korean syllables -->
  <!-- Column 1 -->
  <rect x="18" y="10" width="52" height="42" rx="6" fill="rgba(255,255,255,0.25)" stroke="rgba(255,255,255,0.4)" stroke-width="1.5"/>
  <text x="44" y="39" text-anchor="middle" font-family="sans-serif" font-size="24" font-weight="bold" fill="white">가</text>
  <rect x="18" y="62" width="52" height="42" rx="6" fill="rgba(255,255,255,0.2)" stroke="rgba(255,255,255,0.3)" stroke-width="1.5"/>
  <text x="44" y="91" text-anchor="middle" font-family="sans-serif" font-size="24" font-weight="bold" fill="white">나</text>
  <rect x="18" y="114" width="52" height="42" rx="6" fill="rgba(255,255,255,0.15)" stroke="rgba(255,255,255,0.25)" stroke-width="1.5"/>
  <text x="44" y="143" text-anchor="middle" font-family="sans-serif" font-size="24" fill="rgba(255,255,255,0.7)">다</text>
  <!-- Column 2 -->
  <rect x="82" y="25" width="52" height="42" rx="6" fill="rgba(255,255,255,0.22)" stroke="rgba(255,255,255,0.35)" stroke-width="1.5"/>
  <text x="108" y="54" text-anchor="middle" font-family="sans-serif" font-size="24" font-weight="bold" fill="white">라</text>
  <rect x="82" y="77" width="52" height="42" rx="6" fill="rgba(255,255,255,0.18)" stroke="rgba(255,255,255,0.3)" stroke-width="1.5"/>
  <text x="108" y="106" text-anchor="middle" font-family="sans-serif" font-size="24" fill="rgba(255,255,255,0.8)">마</text>
  <!-- Column 3 -->
  <rect x="146" y="10" width="52" height="42" rx="6" fill="rgba(255,255,255,0.25)" stroke="rgba(255,255,255,0.4)" stroke-width="1.5"/>
  <text x="172" y="39" text-anchor="middle" font-family="sans-serif" font-size="24" font-weight="bold" fill="white">바</text>
  <rect x="146" y="62" width="52" height="42" rx="6" fill="rgba(255,255,255,0.2)" stroke="rgba(255,255,255,0.3)" stroke-width="1.5"/>
  <text x="172" y="91" text-anchor="middle" font-family="sans-serif" font-size="24" fill="rgba(255,255,255,0.75)">사</text>
  <rect x="146" y="114" width="52" height="42" rx="6" fill="rgba(255,255,255,0.12)" stroke="rgba(255,255,255,0.2)" stroke-width="1.5"/>
  <text x="172" y="143" text-anchor="middle" font-family="sans-serif" font-size="24" fill="rgba(255,255,255,0.5)">아</text>
  <!-- Column 4 -->
  <rect x="210" y="18" width="52" height="42" rx="6" fill="rgba(255,255,255,0.22)" stroke="rgba(255,255,255,0.35)" stroke-width="1.5"/>
  <text x="236" y="47" text-anchor="middle" font-family="sans-serif" font-size="24" font-weight="bold" fill="white">자</text>
  <rect x="210" y="70" width="52" height="42" rx="6" fill="rgba(255,255,255,0.15)" stroke="rgba(255,255,255,0.25)" stroke-width="1.5"/>
  <text x="236" y="99" text-anchor="middle" font-family="sans-serif" font-size="24" fill="rgba(255,255,255,0.65)">차</text>
  <!-- Column 5 -->
  <rect x="274" y="10" width="52" height="42" rx="6" fill="rgba(255,255,255,0.2)" stroke="rgba(255,255,255,0.3)" stroke-width="1.5"/>
  <text x="300" y="39" text-anchor="middle" font-family="sans-serif" font-size="24" font-weight="bold" fill="white">카</text>
  <rect x="274" y="62" width="52" height="42" rx="6" fill="rgba(255,255,255,0.15)" stroke="rgba(255,255,255,0.25)" stroke-width="1.5"/>
  <text x="300" y="91" text-anchor="middle" font-family="sans-serif" font-size="24" fill="rgba(255,255,255,0.7)">타</text>
  <!-- Column 6 -->
  <rect x="338" y="20" width="52" height="42" rx="6" fill="rgba(255,255,255,0.22)" stroke="rgba(255,255,255,0.35)" stroke-width="1.5"/>
  <text x="364" y="49" text-anchor="middle" font-family="sans-serif" font-size="24" font-weight="bold" fill="white">파</text>
  <!-- Keyboard input area at bottom -->
  <rect x="40" y="145" width="320" height="55" rx="10" fill="rgba(0,0,0,0.3)" stroke="rgba(255,255,255,0.3)" stroke-width="1.5"/>
  <!-- Typed text -->
  <text x="200" y="165" text-anchor="middle" font-family="sans-serif" font-size="18" fill="white" opacity="0.9">가나다라마|</text>
  <rect x="60" y="178" width="26" height="14" rx="3" fill="rgba(255,255,255,0.15)"/>
  <rect x="92" y="178" width="26" height="14" rx="3" fill="rgba(255,255,255,0.15)"/>
  <rect x="124" y="178" width="26" height="14" rx="3" fill="rgba(255,255,255,0.15)"/>
  <rect x="156" y="178" width="26" height="14" rx="3" fill="rgba(255,255,255,0.15)"/>
  <rect x="188" y="178" width="26" height="14" rx="3" fill="rgba(255,255,255,0.15)"/>
  <rect x="220" y="178" width="26" height="14" rx="3" fill="rgba(255,255,255,0.2)"/>
  <rect x="252" y="178" width="26" height="14" rx="3" fill="rgba(255,255,255,0.15)"/>
  <rect x="284" y="178" width="26" height="14" rx="3" fill="rgba(255,255,255,0.15)"/>
  <rect x="316" y="178" width="40" height="14" rx="3" fill="rgba(255,255,255,0.15)"/>
  <text x="200" y="215" text-anchor="middle" font-family="sans-serif" font-size="18" font-weight="bold" fill="white" opacity="0.9">한글 타이핑</text>
</svg>
